<?xml version="1.0" encoding="UTF-8" standalone="no"?>
<!-- Created with Inkscape (http://www.inkscape.org/) -->

<svg
   xmlns:dc="http://purl.org/dc/elements/1.1/"
   xmlns:cc="http://creativecommons.org/ns#"
   xmlns:rdf="http://www.w3.org/1999/02/22-rdf-syntax-ns#"
   xmlns:svg="http://www.w3.org/2000/svg"
   xmlns="http://www.w3.org/2000/svg"
   xmlns:sodipodi="http://sodipodi.sourceforge.net/DTD/sodipodi-0.dtd"
   xmlns:inkscape="http://www.inkscape.org/namespaces/inkscape"
   width="100"
   height="100"
   id="svg2"
   version="1.1"
   inkscape:version="0.48.2 r9819"
   inkscape:export-filename="/Users/remko/src/site/favicon/favicon.png"
   inkscape:export-xdpi="115.2"
   inkscape:export-ydpi="115.2"
   sodipodi:docname="favicon.svg">
  <defs
     id="defs4" />
  <sodipodi:namedview
     id="base"
     pagecolor="#ffffff"
     bordercolor="#666666"
     borderopacity="1.0"
     inkscape:pageopacity="0.0"
     inkscape:pageshadow="2"
     inkscape:zoom="5.05"
     inkscape:cx="38.071467"
     inkscape:cy="50"
     inkscape:document-units="px"
     inkscape:current-layer="layer1"
     showgrid="false"
     inkscape:window-width="997"
     inkscape:window-height="723"
     inkscape:window-x="0"
     inkscape:window-y="0"
     inkscape:window-maximized="0" />
  <metadata
     id="metadata7">
    <rdf:RDF>
      <cc:Work
         rdf:about="">
        <dc:format>image/svg+xml</dc:format>
        <dc:type
           rdf:resource="http://purl.org/dc/dcmitype/StillImage" />
        <dc:title></dc:title>
      </cc:Work>
    </rdf:RDF>
  </metadata>
  <g
     inkscape:label="Layer 1"
     inkscape:groupmode="layer"
     id="layer1"
     transform="translate(0,-952.36218)">
    <g
       style="font-size:294.1902771px;font-style:normal;font-variant:normal;font-weight:normal;font-stretch:normal;text-align:start;line-height:125%;letter-spacing:0px;word-spacing:0px;writing-mode:lr-tb;text-anchor:start;fill:#000000;fill-opacity:1;stroke:none;font-family:Times New Roman;-inkscape-font-specification:'Times New Roman,'"
       id="text2985">
      <path
         d="m 54.983662,980.96037 8.618855,0 -7.182379,11.34816 c 6.033139,1.53223 10.534093,4.11788 13.502874,7.75697 2.968647,3.639 4.453004,8.0442 4.453075,13.2156 -7.1e-5,6.895 -2.87302,12.9282 -8.618856,18.0996 -5.74596,5.267 -13.167745,7.9005 -22.265377,7.9006 -3.543344,-1e-4 -8.044298,-0.3352 -13.502874,-1.0055 l 0,-6.1769 c 2.681392,0.383 4.979751,0.5746 6.895085,0.5746 4.883979,0 9.001873,-1.6281 12.353693,-4.884 3.351728,-3.1603 5.027615,-6.7994 5.027666,-10.9172 -5.1e-5,-2.873 -1.101349,-5.3629 -3.303895,-7.4697 -2.202642,-2.1069 -4.931944,-3.1603 -8.187913,-3.1603 -0.957689,0 -2.202634,0.096 -3.734837,0.2873 l 15.944883,-25.56923"
         style=""
         id="path2985" />
    </g>
  </g>
</svg>
